<svg xmlns="http://www.w3.org/2000/svg" width="864" height="535" fill="none" viewBox="0 0 864 535"><g clip-path="url(#a)"><path fill="url(#b)" d="M0 0h864v535H0z"/><g clip-path="url(#c)"><path fill="url(#d)" d="M889.424-209.651C945.396-92.035 902.798 69.033 759.678 92.488 636.371 112.696 605.101 257.54 1068.94 385.937c66.21 20.372 338.96 100.107-51.47-55.832 0 0-360.179-135.384-182.74-182.415 428.7-98.067 481.22-274.032 326.75-382.786-161.41-113.659-408.856-262.005-272.056 25.445"/><path fill="url(#e)" d="M677.152 44.67S377.644 179.419 282.93 607.8c-94.714 428.379-843.335-248.733-408.172-277.95 435.162-29.218 606.26-42.607 648.728-313.065C565.955-253.672 896.982-70.29 677.152 44.67"/><path fill="url(#f)" d="M750.819 469.419c-202.024 95.732-382.868 89.759-638.475-27.438-232.738-106.71-374.449-23.346-96.712 249.722 277.736 273.068 443.597 447.707 695.028 230.45 251.431-217.26 355.86-602.329 40.159-452.734"/><path fill="url(#g)" d="M-135.902-72.006c-29.933 130.338 12.655 351.753 318.228 316.197 414.539-48.226 156.519-606.453 72.682-607.655S185.296-91.442 114.631-155.51c-149.925-135.941-218.098-57.896-250.533 83.504"/></g></g><defs><linearGradient id="b" x1="945.5" x2="0" y1="-108" y2="645.5" gradientUnits="userSpaceOnUse"><stop stop-color="#80d34a"/><stop offset="1" stop-color="#0069ff"/></linearGradient><linearGradient id="d" x1="711.156" x2="775.171" y1="102.557" y2="259.022" gradientUnits="userSpaceOnUse"><stop stop-color="#fff" stop-opacity=".25"/><stop offset="1" stop-color="#fff" stop-opacity="0"/></linearGradient><linearGradient id="e" x1="542.404" x2="296.325" y1="99.828" y2="344.25" gradientUnits="userSpaceOnUse"><stop stop-color="#fff" stop-opacity=".25"/><stop offset="1" stop-color="#fff" stop-opacity="0"/></linearGradient><linearGradient id="f" x1="78.297" x2="1015.9" y1="694.979" y2="452.591" gradientUnits="userSpaceOnUse"><stop stop-color="#fff" stop-opacity=".25"/><stop offset="1" stop-color="#fff" stop-opacity="0"/></linearGradient><linearGradient id="g" x1="383.4" x2="-22.004" y1="-40.499" y2="188.804" gradientUnits="userSpaceOnUse"><stop stop-color="#fff" stop-opacity=".25"/><stop offset="1" stop-color="#fff" stop-opacity="0"/></linearGradient><clipPath id="a"><path fill="#fff" d="M0 0h864v535H0z"/></clipPath><clipPath id="c"><path fill="#fff" d="M0 0h864v534.6H0z"/></clipPath></defs></svg>
